<?xml version="1.0" standalone="no"?><!DOCTYPE svg PUBLIC "-//W3C//DTD SVG 1.1//EN" "http://www.w3.org/Graphics/SVG/1.1/DTD/svg11.dtd"><svg t="1554983073927" class="icon" style="" viewBox="0 0 1024 1024" version="1.1" xmlns="http://www.w3.org/2000/svg" p-id="12231" xmlns:xlink="http://www.w3.org/1999/xlink" width="200" height="200"><defs><style type="text/css"></style></defs><path d="M962.1 300.8c-0.4-17.6-9.1-34.4-25.9-49.9-17.2-15.9-42.7-30.4-77.8-44.4-13.7-6-83.5-23-184.4-31.9-92.3-8.1-235.2-11.3-391.8 19.9v0.2c-15.9 2.9-32.1 6.5-48.3 11.2-55.8 15.2-98.5 32.9-126.8 52.6C81 276.7 66 297.3 62.6 319.6c-6.5 41.9 29.6 74.8 45.6 87.2v359.7l4.9 4.7c46.8 44.7 132.7 71.7 255.5 80.4 25.5 1.8 49.9 2.6 71.8 2.8v0.4c168.6-0.1 294.5-13 374.3-38.1 60.9-19.2 74.5-39.7 77.2-45.6l1.5-3.2V384.8c7.3-3.9 17.8-10 28.3-18 27.4-20.7 40.9-42.9 40.4-66zM140.2 752.6V389.9l-7.3-4.7c-0.4-0.3-43.6-29-38.7-60.7 2.9-18.5 25.9-54.5 148.2-87.8l0.2-0.1c71-20.4 141.6-20.7 188.2-17.4 56.6 4 92.9 14 98.1 16.5l0.4 0.2c47.3 21.1 72.5 45.7 74.7 73 3.6 44.6-54.3 93.1-76.9 108l-7.2 4.7v399c-60.2 3.3-289.1 10.2-379.7-68zM871 360.3l-9.5 4.2v394.4c-1.6 1.3-4 3.3-5.1 4.1-7.7 5.6-22.9 14.2-51.2 23.2-42.2 13.3-118.7 28.7-253.3 34.3V438.6c22.6-16.5 89-70.5 84.1-132.2-3.2-39.9-34.6-73.4-93.4-99.7-3.3-1.5-9-3.4-16.6-5.4 55.3-0.8 104.1 1.6 143.5 5.1 100.5 8.7 167.8 25.8 175.9 29.4l1 0.4c53.6 21.3 83.4 44.5 83.9 65.3 0.4 26-43.8 51.8-59.3 58.8z" fill="#ffffff" p-id="12232"></path><path d="M237.1 412m-31.4 0a31.4 31.4 0 1 0 62.8 0 31.4 31.4 0 1 0-62.8 0Z" fill="#ffffff" p-id="12233"></path><path d="M429.5 540.6m-31.4 0a31.4 31.4 0 1 0 62.8 0 31.4 31.4 0 1 0-62.8 0Z" fill="#ffffff" p-id="12234"></path><path d="M237.7 668.4m-31.4 0a31.4 31.4 0 1 0 62.8 0 31.4 31.4 0 1 0-62.8 0Z" fill="#ffffff" p-id="12235"></path></svg>